<mxfile host="app.diagrams.net" agent="Mozilla/5.0 (Windows NT 10.0; Win64; x64) AppleWebKit/537.36 (KHTML, like Gecko) Chrome/128.0.0.0 Safari/537.36 OPR/114.0.0.0 (Edition std-1)" version="24.8.3">
  <diagram name="Página-1" id="qutICyVOGgyFWs-TM0fm">
    <mxGraphModel dx="839" dy="476" grid="1" gridSize="10" guides="1" tooltips="1" connect="1" arrows="1" fold="1" page="1" pageScale="1" pageWidth="827" pageHeight="1169" math="0" shadow="0">
      <root>
        <mxCell id="0" />
        <mxCell id="1" parent="0" />
        <mxCell id="at2XMUZmFgwB7fufx5Op-1" value="" style="whiteSpace=wrap;html=1;aspect=fixed;" parent="1" vertex="1">
          <mxGeometry x="110" y="70" width="580" height="580" as="geometry" />
        </mxCell>
        <mxCell id="at2XMUZmFgwB7fufx5Op-2" value="Usuario" style="shape=umlActor;verticalLabelPosition=bottom;verticalAlign=top;html=1;outlineConnect=0;" parent="1" vertex="1">
          <mxGeometry x="10" y="300" width="60" height="120" as="geometry" />
        </mxCell>
        <mxCell id="at2XMUZmFgwB7fufx5Op-3" value="&#xa;Escanear Código de Barras&#xa;&#xa;" style="ellipse;whiteSpace=wrap;html=1;" parent="1" vertex="1">
          <mxGeometry x="150" y="80" width="120" height="80" as="geometry" />
        </mxCell>
        <mxCell id="at2XMUZmFgwB7fufx5Op-4" value="" style="endArrow=classic;html=1;rounded=0;entryX=0;entryY=0.5;entryDx=0;entryDy=0;" parent="1" source="at2XMUZmFgwB7fufx5Op-2" target="at2XMUZmFgwB7fufx5Op-3" edge="1">
          <mxGeometry width="50" height="50" relative="1" as="geometry">
            <mxPoint x="390" y="290" as="sourcePoint" />
            <mxPoint x="440" y="240" as="targetPoint" />
            <Array as="points" />
          </mxGeometry>
        </mxCell>
        <mxCell id="at2XMUZmFgwB7fufx5Op-5" value="Consultar Dados Nutricionais" style="ellipse;whiteSpace=wrap;html=1;" parent="1" vertex="1">
          <mxGeometry x="360" y="80" width="120" height="80" as="geometry" />
        </mxCell>
        <mxCell id="at2XMUZmFgwB7fufx5Op-7" value="Criar Perfil do Usuário" style="ellipse;whiteSpace=wrap;html=1;" parent="1" vertex="1">
          <mxGeometry x="150" y="420" width="120" height="80" as="geometry" />
        </mxCell>
        <mxCell id="at2XMUZmFgwB7fufx5Op-9" value="" style="endArrow=classic;html=1;rounded=0;entryX=0;entryY=0.5;entryDx=0;entryDy=0;" parent="1" source="at2XMUZmFgwB7fufx5Op-2" target="at2XMUZmFgwB7fufx5Op-7" edge="1">
          <mxGeometry width="50" height="50" relative="1" as="geometry">
            <mxPoint x="110" y="260" as="sourcePoint" />
            <mxPoint x="160" y="210" as="targetPoint" />
          </mxGeometry>
        </mxCell>
        <mxCell id="at2XMUZmFgwB7fufx5Op-10" value="Gerenciar Intolerâncias e Alergias" style="ellipse;whiteSpace=wrap;html=1;" parent="1" vertex="1">
          <mxGeometry x="150" y="300" width="120" height="80" as="geometry" />
        </mxCell>
        <mxCell id="at2XMUZmFgwB7fufx5Op-11" value="" style="endArrow=classic;html=1;rounded=0;" parent="1" source="at2XMUZmFgwB7fufx5Op-2" target="at2XMUZmFgwB7fufx5Op-10" edge="1">
          <mxGeometry width="50" height="50" relative="1" as="geometry">
            <mxPoint x="60" y="325" as="sourcePoint" />
            <mxPoint x="110" y="275" as="targetPoint" />
          </mxGeometry>
        </mxCell>
        <mxCell id="at2XMUZmFgwB7fufx5Op-13" value="Verificar Adequação do Produto" style="ellipse;whiteSpace=wrap;html=1;" parent="1" vertex="1">
          <mxGeometry x="150" y="170" width="120" height="80" as="geometry" />
        </mxCell>
        <mxCell id="at2XMUZmFgwB7fufx5Op-15" value="" style="endArrow=classic;html=1;rounded=0;" parent="1" source="at2XMUZmFgwB7fufx5Op-2" target="at2XMUZmFgwB7fufx5Op-13" edge="1">
          <mxGeometry width="50" height="50" relative="1" as="geometry">
            <mxPoint x="30" y="400" as="sourcePoint" />
            <mxPoint x="80" y="350" as="targetPoint" />
          </mxGeometry>
        </mxCell>
        <mxCell id="at2XMUZmFgwB7fufx5Op-25" value="" style="endArrow=block;dashed=1;endFill=0;endSize=12;html=1;rounded=0;entryX=0;entryY=0.493;entryDx=0;entryDy=0;entryPerimeter=0;" parent="1" target="at2XMUZmFgwB7fufx5Op-5" edge="1">
          <mxGeometry width="160" relative="1" as="geometry">
            <mxPoint x="270" y="119" as="sourcePoint" />
            <mxPoint x="330" y="119.41" as="targetPoint" />
            <Array as="points">
              <mxPoint x="300" y="119.82" />
            </Array>
          </mxGeometry>
        </mxCell>
        <mxCell id="at2XMUZmFgwB7fufx5Op-31" value="Base de dados do usuario" style="ellipse;whiteSpace=wrap;html=1;" parent="1" vertex="1">
          <mxGeometry x="470" y="410" width="120" height="80" as="geometry" />
        </mxCell>
        <mxCell id="at2XMUZmFgwB7fufx5Op-32" value="Sistema" style="shape=umlActor;verticalLabelPosition=bottom;verticalAlign=top;html=1;outlineConnect=0;" parent="1" vertex="1">
          <mxGeometry x="750" y="270" width="60" height="120" as="geometry" />
        </mxCell>
        <mxCell id="at2XMUZmFgwB7fufx5Op-33" value="&amp;nbsp;Base de Dados de produtos" style="ellipse;whiteSpace=wrap;html=1;" parent="1" vertex="1">
          <mxGeometry x="500" y="230" width="120" height="80" as="geometry" />
        </mxCell>
        <mxCell id="at2XMUZmFgwB7fufx5Op-34" value="" style="endArrow=classic;html=1;rounded=0;exitX=0.5;exitY=0.5;exitDx=0;exitDy=0;exitPerimeter=0;" parent="1" source="at2XMUZmFgwB7fufx5Op-32" target="at2XMUZmFgwB7fufx5Op-33" edge="1">
          <mxGeometry width="50" height="50" relative="1" as="geometry">
            <mxPoint x="630" y="340" as="sourcePoint" />
            <mxPoint x="680" y="290" as="targetPoint" />
          </mxGeometry>
        </mxCell>
        <mxCell id="griqsTf2oj_84FhnUK4I-1" value="" style="endArrow=block;dashed=1;endFill=0;endSize=12;html=1;rounded=0;exitX=1;exitY=0.5;exitDx=0;exitDy=0;entryX=0;entryY=0;entryDx=0;entryDy=0;" edge="1" parent="1" source="at2XMUZmFgwB7fufx5Op-5" target="at2XMUZmFgwB7fufx5Op-33">
          <mxGeometry width="160" relative="1" as="geometry">
            <mxPoint x="460" y="119.5" as="sourcePoint" />
            <mxPoint x="620" y="119.5" as="targetPoint" />
          </mxGeometry>
        </mxCell>
        <mxCell id="griqsTf2oj_84FhnUK4I-2" value="Extends" style="endArrow=block;endSize=16;endFill=0;html=1;rounded=0;" edge="1" parent="1" target="at2XMUZmFgwB7fufx5Op-5">
          <mxGeometry width="160" relative="1" as="geometry">
            <mxPoint x="260" y="190" as="sourcePoint" />
            <mxPoint x="420" y="190" as="targetPoint" />
          </mxGeometry>
        </mxCell>
        <mxCell id="griqsTf2oj_84FhnUK4I-3" value="&amp;nbsp;Base de Dados de produtos" style="ellipse;whiteSpace=wrap;html=1;" vertex="1" parent="1">
          <mxGeometry x="500" y="230" width="120" height="80" as="geometry" />
        </mxCell>
        <mxCell id="griqsTf2oj_84FhnUK4I-4" value="" style="endArrow=block;dashed=1;endFill=0;endSize=12;html=1;rounded=0;exitX=1;exitY=0.5;exitDx=0;exitDy=0;entryX=0;entryY=0.5;entryDx=0;entryDy=0;" edge="1" parent="1" source="at2XMUZmFgwB7fufx5Op-7" target="at2XMUZmFgwB7fufx5Op-31">
          <mxGeometry width="160" relative="1" as="geometry">
            <mxPoint x="270" y="499.5" as="sourcePoint" />
            <mxPoint x="430" y="499.5" as="targetPoint" />
          </mxGeometry>
        </mxCell>
        <mxCell id="griqsTf2oj_84FhnUK4I-5" value="" style="endArrow=classic;html=1;rounded=0;exitX=0.5;exitY=0.5;exitDx=0;exitDy=0;exitPerimeter=0;" edge="1" parent="1" source="at2XMUZmFgwB7fufx5Op-32" target="at2XMUZmFgwB7fufx5Op-31">
          <mxGeometry width="50" height="50" relative="1" as="geometry">
            <mxPoint x="620" y="370" as="sourcePoint" />
            <mxPoint x="670" y="320" as="targetPoint" />
          </mxGeometry>
        </mxCell>
      </root>
    </mxGraphModel>
  </diagram>
</mxfile>
